<?xml version="1.0" standalone="no"?>
<!DOCTYPE svg PUBLIC "-//W3C//DTD SVG 20010904//EN"
 "http://www.w3.org/TR/2001/REC-SVG-20010904/DTD/svg10.dtd">
<svg version="1.0" xmlns="http://www.w3.org/2000/svg"
 width="512.000000pt" height="512.000000pt" viewBox="0 0 512.000000 512.000000"
 preserveAspectRatio="xMidYMid meet">

<g transform="translate(0.000000,512.000000) scale(0.100000,-0.100000)"
fill="#000000" stroke="none">
<path d="M2485 4945 c-22 -8 -59 -34 -82 -58 -86 -91 -84 -209 6 -298 91 -92
211 -92 302 0 92 91 92 211 0 302 -66 66 -141 84 -226 54z"/>
<path d="M2349 4412 c-43 -22 -59 -38 -81 -81 l-28 -54 2 -236 3 -236 315 0
315 0 3 236 2 236 -28 54 c-22 43 -38 59 -81 81 -52 27 -58 28 -211 28 -153 0
-159 -1 -211 -28z"/>
<path d="M4486 3779 c-103 -24 -166 -106 -166 -213 0 -65 27 -124 74 -163 85
-69 197 -69 282 0 73 60 95 172 53 263 -26 54 -71 90 -135 110 -53 16 -53 16
-108 3z"/>
<path d="M495 3766 c-140 -64 -168 -266 -51 -363 111 -91 273 -57 335 70 51
106 7 233 -101 288 -44 23 -138 25 -183 5z"/>
<path d="M1005 3644 c-16 -9 -42 -27 -56 -41 -35 -32 -150 -283 -157 -339 -6
-54 18 -120 56 -157 25 -24 422 -217 446 -217 11 0 266 539 266 562 0 7 -91
55 -203 107 -171 80 -211 95 -262 98 -42 2 -69 -2 -90 -13z"/>
<path d="M3768 3562 c-117 -54 -208 -103 -208 -110 0 -25 255 -562 267 -562
25 0 419 192 445 217 15 14 35 46 44 70 27 69 15 121 -62 278 -86 174 -111
198 -212 202 -66 3 -70 2 -274 -95z"/>
<path d="M2430 3589 c-379 -47 -710 -311 -841 -669 -142 -391 -47 -816 249
-1102 135 -131 287 -217 470 -265 82 -22 120 -26 242 -27 196 -1 312 25 480
109 362 181 588 568 567 970 -10 190 -72 378 -174 533 -55 83 -183 213 -269
272 -214 148 -470 211 -724 179z m141 -190 c102 -53 131 -92 137 -183 5 -77
-15 -120 -83 -186 -55 -52 -84 -109 -85 -162 0 -52 43 -164 77 -200 72 -76
117 -76 332 3 93 34 184 61 206 61 87 2 161 -64 185 -162 8 -32 26 -65 53 -95
l40 -47 -17 -71 c-68 -291 -289 -535 -574 -631 -247 -84 -551 -47 -756 92
l-28 20 158 4 c183 4 223 16 286 86 105 117 75 299 -62 376 -54 30 -58 31
-185 31 -116 0 -135 3 -177 23 -118 58 -161 178 -123 337 33 136 13 242 -62
325 l-45 50 17 28 c33 50 155 160 230 207 113 71 245 116 387 134 4 1 44 -18
89 -40z"/>
<path d="M1075 2133 c-110 -52 -212 -106 -227 -120 -38 -37 -62 -103 -56 -157
6 -50 118 -299 151 -334 12 -13 40 -33 61 -44 71 -36 123 -24 353 83 112 52
203 100 203 107 0 6 -57 136 -127 287 -87 185 -133 274 -143 274 -8 -1 -105
-44 -215 -96z"/>
<path d="M3690 1960 c-69 -149 -126 -279 -128 -288 -2 -13 42 -38 200 -112
197 -92 205 -95 275 -95 105 0 129 22 217 200 78 157 89 208 62 278 -9 24 -29
56 -44 70 -26 25 -420 217 -445 217 -7 0 -68 -122 -137 -270z"/>
<path d="M489 1743 c-35 -18 -64 -43 -83 -70 -64 -93 -38 -234 56 -299 37 -26
49 -29 123 -29 74 0 86 3 123 29 94 65 120 206 56 299 -36 52 -119 97 -179 97
-25 0 -62 -11 -96 -27z"/>
<path d="M4460 1757 c-78 -25 -140 -120 -140 -213 1 -134 145 -239 273 -200
101 30 157 105 157 210 0 152 -141 250 -290 203z"/>
<path d="M2247 1313 c-4 -3 -7 -111 -7 -239 l0 -232 28 -53 c22 -43 38 -59 81
-81 52 -27 58 -28 211 -28 153 0 159 1 211 28 43 22 59 38 81 81 l28 54 -2
236 -3 236 -311 3 c-171 1 -313 -1 -317 -5z"/>
<path d="M2485 585 c-22 -8 -59 -34 -82 -58 -86 -91 -84 -209 6 -298 91 -92
211 -92 302 0 92 91 92 211 0 302 -66 66 -141 84 -226 54z"/>
</g>
</svg>
